<svg width="19" height="16" viewBox="0 0 19 16" fill="none" xmlns="http://www.w3.org/2000/svg">
<path d="M16.0842 1.32698C14.873 0.713687 13.5747 0.260383 12.217 0.0026222C12.2049 1.60716e-05 12.1924 0.00169555 12.1812 0.0074284C12.17 0.0131612 12.1607 0.0226638 12.1545 0.0346201C11.9882 0.362599 11.803 0.790126 11.6732 1.12788C10.2332 0.88633 8.76934 0.88633 7.32942 1.12788C7.18481 0.75356 7.02174 0.388574 6.84097 0.0346201C6.83485 0.0225166 6.82558 0.0127991 6.8144 0.00676426C6.80323 0.000729432 6.79068 -0.00133575 6.77843 0.000844454C5.42156 0.258605 4.12326 0.711909 2.91125 1.32609C2.90083 1.331 2.89199 1.33938 2.88592 1.35009C0.422327 5.41649 -0.252946 9.38245 0.0787532 13.2986C0.0796762 13.3082 0.0823279 13.3175 0.0865469 13.3259C0.0907659 13.3343 0.0964639 13.3417 0.103294 13.3475C1.54123 14.5229 3.14506 15.4183 4.84762 15.9962C4.85948 16.0003 4.87218 16.0003 4.88404 15.9962C4.8959 15.9921 4.90638 15.984 4.91411 15.9731C5.28048 15.423 5.60514 14.8394 5.88467 14.2284C5.88855 14.22 5.89078 14.2108 5.89123 14.2014C5.89167 14.192 5.8903 14.1826 5.88722 14.1738C5.88415 14.1651 5.87943 14.1571 5.87339 14.1506C5.86735 14.1441 5.86013 14.139 5.85221 14.1359C5.34081 13.9197 4.84531 13.6588 4.37025 13.3555C4.36172 13.3501 4.35453 13.3423 4.34932 13.3329C4.34412 13.3236 4.34106 13.3129 4.34044 13.3019C4.33981 13.2909 4.34163 13.2799 4.34572 13.2698C4.34982 13.2598 4.35608 13.2511 4.36392 13.2444C4.46367 13.1618 4.56341 13.0755 4.65841 12.9893C4.66696 12.9816 4.67726 12.9766 4.68817 12.9751C4.69907 12.9735 4.71014 12.9754 4.72016 12.9804C7.82895 14.5483 11.1958 14.5483 14.2682 12.9804C14.2782 12.9751 14.2894 12.9729 14.3005 12.9744C14.3115 12.9758 14.322 12.9807 14.3307 12.9884C14.4257 13.0755 14.5247 13.1618 14.6252 13.2444C14.6331 13.2509 14.6395 13.2595 14.6437 13.2695C14.6479 13.2794 14.6499 13.2904 14.6494 13.3014C14.649 13.3124 14.6461 13.3231 14.641 13.3326C14.636 13.342 14.6289 13.3499 14.6205 13.3555C14.1471 13.6613 13.6547 13.9199 13.1377 14.135C13.1298 14.1383 13.1225 14.1434 13.1165 14.15C13.1104 14.1566 13.1057 14.1646 13.1027 14.1734C13.0996 14.1823 13.0982 14.1917 13.0987 14.2012C13.0991 14.2107 13.1014 14.2199 13.1053 14.2284C13.3902 14.839 13.7164 15.4203 14.075 15.9722C14.0825 15.9836 14.0929 15.992 14.1048 15.9965C14.1167 16.0009 14.1295 16.0012 14.1415 15.9971C15.847 15.4208 17.4534 14.525 18.893 13.3475C18.9 13.342 18.9059 13.3349 18.9102 13.3266C18.9146 13.3183 18.9174 13.3091 18.9183 13.2995C19.3141 8.77182 18.2549 4.83786 16.1087 1.35187C16.1035 1.34054 16.0948 1.33171 16.0842 1.32698ZM6.34936 10.9139C5.41364 10.9139 4.64179 9.96374 4.64179 8.79849C4.64179 7.63234 5.3986 6.68307 6.34936 6.68307C7.30725 6.68307 8.07198 7.64034 8.05694 8.79849C8.05694 9.96463 7.30013 10.9139 6.34936 10.9139ZM12.6627 10.9139C11.7262 10.9139 10.9551 9.96374 10.9551 8.79849C10.9551 7.63234 11.7112 6.68307 12.6627 6.68307C13.6206 6.68307 14.3853 7.64034 14.3703 8.79849C14.3703 9.96463 13.6214 10.9139 12.6627 10.9139Z" fill="white"/>
</svg>
