<svg width="24" height="21" viewBox="0 0 24 21" fill="none" xmlns="http://www.w3.org/2000/svg">
<path d="M22.3186 0.4375L13.454 6.6926L15.0657 3.01692L22.3186 0.4375Z" fill="#E17726" stroke="#E17726" stroke-width="0.25" stroke-linecap="round" stroke-linejoin="round"/>
<path d="M1.96997 0.4375L10.7003 6.75708L9.15571 3.01692L1.96997 0.4375Z" fill="#E27625" stroke="#E27625" stroke-width="0.25" stroke-linecap="round" stroke-linejoin="round"/>
<path d="M19.162 15.0117L16.8115 18.4295L21.8483 19.7836L23.2585 15.0762L19.162 15.0117Z" fill="#E27625" stroke="#E27625" stroke-width="0.25" stroke-linecap="round" stroke-linejoin="round"/>
<path d="M1.02991 15.0762L2.44019 19.7836L7.47693 18.4295L5.12645 15.0117L1.02991 15.0762Z" fill="#E27625" stroke="#E27625" stroke-width="0.25" stroke-linecap="round" stroke-linejoin="round"/>
<path d="M7.20826 9.14407L5.79797 11.1431L10.7676 11.3366L10.6332 6.17773L7.20826 9.14407Z" fill="#E27625" stroke="#E27625" stroke-width="0.25" stroke-linecap="round" stroke-linejoin="round"/>
<path d="M17.0804 9.14407L13.5883 6.17773L13.454 11.4011L18.4236 11.2076L17.0804 9.14407Z" fill="#E27625" stroke="#E27625" stroke-width="0.25" stroke-linecap="round" stroke-linejoin="round"/>
<path d="M7.47705 18.4294L10.4991 17.0107L7.87999 15.0762L7.47705 18.4294Z" fill="#E27625" stroke="#E27625" stroke-width="0.25" stroke-linecap="round" stroke-linejoin="round"/>
<path d="M13.7898 17.0107L16.8118 18.4294L16.4089 15.0762L13.7898 17.0107Z" fill="#E27625" stroke="#E27625" stroke-width="0.25" stroke-linecap="round" stroke-linejoin="round"/>
<path d="M16.8118 18.4304L13.7898 17.0117L14.0584 18.8818V19.6556L16.8118 18.4304Z" fill="#D5BFB2" stroke="#D5BFB2" stroke-width="0.25" stroke-linecap="round" stroke-linejoin="round"/>
<path d="M7.47705 18.4304L10.2976 19.7201V18.9463L10.5662 17.0762L7.47705 18.4304Z" fill="#D5BFB2" stroke="#D5BFB2" stroke-width="0.25" stroke-linecap="round" stroke-linejoin="round"/>
<path d="M10.2975 13.8504L7.81274 13.141L9.55881 12.3672L10.2975 13.8504Z" fill="#233447" stroke="#233447" stroke-width="0.25" stroke-linecap="round" stroke-linejoin="round"/>
<path d="M13.924 13.8504L14.6627 12.3672L16.4087 13.141L13.924 13.8504Z" fill="#233447" stroke="#233447" stroke-width="0.25" stroke-linecap="round" stroke-linejoin="round"/>
<path d="M7.47694 18.4295L7.87988 15.0117L5.12646 15.0762L7.47694 18.4295Z" fill="#CC6228" stroke="#CC6228" stroke-width="0.25" stroke-linecap="round" stroke-linejoin="round"/>
<path d="M16.3417 15.0117L16.7446 18.4295L19.0951 15.0762L16.3417 15.0117Z" fill="#CC6228" stroke="#CC6228" stroke-width="0.25" stroke-linecap="round" stroke-linejoin="round"/>
<path d="M18.4907 11.207L13.5211 11.4005L13.9912 13.8509L14.7299 12.3678L16.476 13.1416L18.4907 11.207Z" fill="#CC6228" stroke="#CC6228" stroke-width="0.25" stroke-linecap="round" stroke-linejoin="round"/>
<path d="M7.81267 13.1416L9.55874 12.3678L10.2975 13.8509L10.7676 11.4005L5.79797 11.207L7.81267 13.1416Z" fill="#CC6228" stroke="#CC6228" stroke-width="0.25" stroke-linecap="round" stroke-linejoin="round"/>
<path d="M5.79797 11.207L7.87982 15.1407L7.81267 13.2061L5.79797 11.207Z" fill="#E27525" stroke="#E27525" stroke-width="0.25" stroke-linecap="round" stroke-linejoin="round"/>
<path d="M16.4758 13.1416L16.4087 15.0762L18.4905 11.1426L16.4758 13.1416Z" fill="#E27525" stroke="#E27525" stroke-width="0.25" stroke-linecap="round" stroke-linejoin="round"/>
<path d="M10.7679 11.4023L10.2975 13.8528L10.9023 16.7546L11.0367 12.95L10.7679 11.4023Z" fill="#E27525" stroke="#E27525" stroke-width="0.25" stroke-linecap="round" stroke-linejoin="round"/>
<path d="M13.454 11.4023L13.1852 12.95L13.3196 16.7546L13.9244 13.8528L13.454 11.4023Z" fill="#E27525" stroke="#E27525" stroke-width="0.25" stroke-linecap="round" stroke-linejoin="round"/>
<path d="M13.9237 13.85L13.3193 16.7518L13.7223 17.0098L16.3414 15.0752L16.4085 13.1406L13.9237 13.85Z" fill="#F5841F" stroke="#F5841F" stroke-width="0.25" stroke-linecap="round" stroke-linejoin="round"/>
<path d="M7.81274 13.1406L7.8799 15.0752L10.499 17.0098L10.9019 16.7518L10.2975 13.85L7.81274 13.1406Z" fill="#F5841F" stroke="#F5841F" stroke-width="0.25" stroke-linecap="round" stroke-linejoin="round"/>
<path d="M13.9912 19.7174V18.9436L13.7898 18.7502H10.4319L10.2305 18.9436V19.7174L7.47705 18.4277L8.4844 19.2016L10.4319 20.4913H13.8569L15.8716 19.2016L16.8118 18.4277L13.9912 19.7174Z" fill="#C0AC9D" stroke="#C0AC9D" stroke-width="0.25" stroke-linecap="round" stroke-linejoin="round"/>
<path d="M13.7898 17.0118L13.3868 16.7539H10.902L10.4991 17.0118L10.2305 18.8819L10.4319 18.6885H13.7898L13.9912 18.8819L13.7898 17.0118Z" fill="#161616" stroke="#161616" stroke-width="0.25" stroke-linecap="round" stroke-linejoin="round"/>
<path d="M22.6544 7.144L23.3932 3.66178L22.2515 0.4375L13.7898 6.49914L17.0805 9.14305L21.7143 10.4328L22.7216 9.27202L22.2515 9.01408L22.9902 8.36922L22.453 7.98231L23.1917 7.46643L22.6544 7.144Z" fill="#763E1A" stroke="#763E1A" stroke-width="0.25" stroke-linecap="round" stroke-linejoin="round"/>
<path d="M0.828369 3.66178L1.56709 7.144L1.097 7.46642L1.83572 7.98231L1.29846 8.36922L2.03719 9.01408L1.56709 9.33651L2.57444 10.4972L7.20823 9.20753L10.4989 6.56363L1.97003 0.4375L0.828369 3.66178Z" fill="#763E1A" stroke="#763E1A" stroke-width="0.25" stroke-linecap="round" stroke-linejoin="round"/>
<path d="M21.7141 10.4323L17.0803 9.14258L18.4905 11.1416L16.4087 15.0752L19.1621 15.0108H23.2587L21.7141 10.4323Z" fill="#F5841F" stroke="#F5841F" stroke-width="0.25" stroke-linecap="round" stroke-linejoin="round"/>
<path d="M7.2083 9.14258L2.57451 10.4323L1.02991 15.0108H5.12645L7.87987 15.0752L5.79802 11.1416L7.2083 9.14258Z" fill="#F5841F" stroke="#F5841F" stroke-width="0.25" stroke-linecap="round" stroke-linejoin="round"/>
<path d="M13.4538 11.4007L13.7224 6.4998L15.0655 3.01758H9.08862L10.4318 6.4998L10.7004 11.4007L10.8347 12.9484V16.753H13.3195V12.9484L13.4538 11.4007Z" fill="#F5841F" stroke="#F5841F" stroke-width="0.25" stroke-linecap="round" stroke-linejoin="round"/>
</svg>
