<svg width="23" height="14" viewBox="0 0 23 14" fill="none" xmlns="http://www.w3.org/2000/svg">
<path d="M5.36867 2.71789C8.97365 -0.803098 14.8256 -0.803098 18.4306 2.71789L18.8646 3.14489C19.0466 3.31989 19.0466 3.60689 18.8646 3.78188L17.3806 5.23088C17.2896 5.32188 17.1426 5.32188 17.0516 5.23088L16.4566 4.64988C13.9366 2.19289 9.86265 2.19289 7.34266 4.64988L6.70566 5.27288C6.61466 5.36388 6.46766 5.36388 6.37666 5.27288L4.89267 3.82388C4.71067 3.64889 4.71067 3.36189 4.89267 3.18689L5.36867 2.71789ZM21.5036 5.71388L22.8266 7.00187C23.0086 7.17687 23.0086 7.46387 22.8266 7.63887L16.8696 13.4559C16.6876 13.6309 16.3936 13.6309 16.2186 13.4559L11.9906 9.32587C11.9486 9.28387 11.8716 9.28387 11.8296 9.32587L7.60166 13.4559C7.41966 13.6309 7.12566 13.6309 6.95066 13.4559L0.972681 7.63887C0.790682 7.46387 0.790682 7.17687 0.972681 7.00187L2.29568 5.71388C2.47768 5.53888 2.77168 5.53888 2.94667 5.71388L7.17466 9.84386C7.21666 9.88586 7.29366 9.88586 7.33566 9.84386L11.5636 5.71388C11.7456 5.53888 12.0396 5.53888 12.2146 5.71388L16.4426 9.84386C16.4846 9.88586 16.5616 9.88586 16.6036 9.84386L20.8316 5.71388C21.0276 5.53888 21.3216 5.53888 21.5036 5.71388Z" fill="black"/>
</svg>
